<svg xmlns="http://www.w3.org/2000/svg" viewBox="0 0 420 297"><g fill="none" stroke="#000" stroke-width="1.518"><path d="M85.791 103.692c17.66 10.63 37.652 21.692 59.046 17.78 21.345-3.67 43.325-11.635 64.936-4.733 22.69 5.658 43.914 20.03 68.1 17.2 14.032-1.7 26.74-8.435 39.05-14.94" transform="matrix(1.61758 0 0 2.4156 -90.215 -230.063)"/><path d="M316.923 119c-19.35 12.388-40.708 27.32-64.939 23.892-23.65-3.516-46.078-17.523-70.65-12.537-22.588 3.97-44.07 13.49-67.245 14.278-11.872.904-23.788.877-35.687.85" transform="matrix(1.61758 0 0 2.4156 -90.215 -230.063)"/><path d="M85.791 103.692c-14.275-5.69-31.34 7.442-29.208 22.717.926 10.9 10.908 19.57 21.82 19.074m32.448-29.233c7.583-15.434 28.554-21.15 43.166-12.327 8.866 5.449 20.187 9.18 30.103 4.125 5.427-2.544 9.9-7.06 12.391-12.51m0-.001c-.579 7.51-4.477 13.686-10.179 18.455m-28.064 22.112c7.677 10.485 23.061 12.192 33.806 5.598 7.515-4.22 17.4-6.777 24.496-.212m.001 0c-2.24-4.51-5.828-7.94-10.017-10.655" transform="matrix(1.61758 0 0 2.4156 -90.215 -230.063)"/><path d="M160.263 135.427c7.097 9.44 20.874 10.092 30.627 4.618 5.388-2.164 12.772-9.24 18.306-3.867m-5.619-5.84c2.41 1.397 5.245 2.917 5.62 5.84M110.85 116.25l-.246.46m2.59.873c6.801-13.72 25.438-19.708 38.567-11.384 9.747 5.874 24.84 8.94 35.466 2.902m0 0c-1.132 2.36-5.58 5.174-8.314 5.74" transform="matrix(1.61758 0 0 2.4156 -90.215 -230.063)"/><path d="M127.991 114.647c.165 3.9-6.287 3.572-5.733-.287.34-3.564 5.736-3.312 5.732.287zm51.4 21.467c.167 3.9-6.286 3.572-5.732-.287.34-3.564 5.736-3.311 5.732.287zm26.445-26.374c.167 3.9-6.286 3.572-5.732-.287.34-3.565 5.736-3.312 5.732.287zm21.734 32.694c.166 3.9-6.286 3.573-5.732-.286.338-3.565 5.736-3.312 5.732.287zm-80.13 4.725c.165 3.9-6.287 3.572-5.733-.287.338-3.564 5.736-3.311 5.732.287zm28.725-47.247c.167 3.9-6.286 3.572-5.732-.287.34-3.564 5.736-3.311 5.732.287zm-86.154 40.115c1.634-1.511 2.244-3.15 2.575-5.35.285-1.894.008-3.855-.688-5.64-.696-1.784-1.803-3.395-3.142-4.765-2.392-2.45-5.611-4.157-9.024-4.43a11.77 11.77 0 0 0-5.05.683 10.51 10.51 0 0 0-4.199 2.868 10.144 10.144 0 0 0-2.46 5.756 10.436 10.436 0 0 0 1.366 6.114c.991 1.71 2.488 3.138 4.282 3.968 1.794.829 3.883 1.04 5.785.502a7.891 7.891 0 0 0 4.026-2.701 7.891 7.891 0 0 0 1.664-4.553m55.6-7.17c-4.344 6.082-10.65 10.74-17.741 13.105-10.017 3.34-21.508 1.928-30.419-3.737m48.16-9.368c-9.504 10.107-26.572 8.123-35.135-2.147-7.94-8.353-17.222-19.511-30.455-17.431-14.683 1.24-22.005 20.984-10.595 31.098 6.584 5.506 18.315 9.065 25.45 3.198" transform="matrix(1.61758 0 0 2.4156 -90.215 -230.063)"/><path d="M124.424 116.496c-.56-.17-1.08-.586-1.255-1.007-.2-.479-.085-1.51.222-1.987.728-1.132 2.562-1.182 3.391-.094.46.603.53 1.726.149 2.348-.315.512-1.09.881-1.843.877-.12 0-.42-.062-.664-.137zm48.262-14.699c-1.173-.278-1.699-1.243-1.36-2.496.305-1.122 1.513-1.692 2.714-1.282.911.311 1.405 1.152 1.297 2.209-.085.838-.653 1.443-1.51 1.607-.479.092-.61.088-1.141-.038zm29.486 9.763c-1.01-.341-1.465-1.17-1.22-2.226.305-1.31 1.533-1.954 2.806-1.471.811.307 1.262.994 1.262 1.923s-.432 1.552-1.248 1.8c-.594.18-1.011.174-1.6-.025zm-26.162 26.473a2.077 2.077 0 0 1-1.254-.778c-.234-.32-.276-.48-.274-1.029.004-.876.233-1.368.818-1.76.784-.526 1.766-.508 2.51.043.514.381.73.892.729 1.721-.002.977-.398 1.497-1.34 1.761a2.256 2.256 0 0 1-1.19.042z" fill="red" stroke-width=".269" transform="matrix(1.61758 0 0 2.4156 -90.215 -230.063)"/><path d="M223.916 144.254c-.264-.077-.647-.32-.851-.54-.505-.544-.53-1.847-.049-2.467a2.042 2.042 0 0 1 1.671-.814c1.14.022 1.88.682 2.026 1.806.201 1.546-1.126 2.502-2.797 2.015z" fill="red" stroke-width=".38" transform="matrix(1.61758 0 0 2.4156 -90.215 -230.063)"/><path d="M143.585 148.887c-.926-.361-1.284-1.517-.818-2.64.44-1.061 1.931-1.395 3.008-.675.456.306.59.56.666 1.263.114 1.055-.04 1.534-.618 1.92-.469.315-1.6.38-2.238.132z" fill="red" stroke-width=".537" transform="matrix(1.61758 0 0 2.4156 -90.215 -230.063)"/><path d="M176.528 144.787c-6.724-.399-12.7-3.25-16.695-7.967l-.404-.477.233-.066c.128-.036.24-.052.248-.034.048.096.802.971 1.184 1.375 2.787 2.941 6.339 4.954 10.542 5.973 1.102.267 2.364.47 3.716.597.975.092 3.514.093 4.514.001 2.673-.244 5.187-.806 7.552-1.688.948-.353 2.437-1.015 3.202-1.424a23 23 0 0 1 1.15-.566 30.15 30.15 0 0 0 1.233-.6c.608-.316 1.132-.609 3.488-1.95 1.652-.941 2.908-1.586 3.879-1.99 2.934-1.22 5.016-1.304 6.893-.278.374.204.858.556 1.191.867.1.092.195.168.212.167.017 0 .15-.12.293-.269l.26-.268.383-.046c.21-.025.382-.051.382-.058 0-.007-.026-.141-.057-.299a5.835 5.835 0 0 0-.685-1.833c-.103-.175-.18-.322-.17-.328.024-.016.916.744 1.484 1.264a26.815 26.815 0 0 1 2.905 3.137c.224.286.407.53.407.542 0 .012-.222-.09-.492-.225-1.677-.843-3.676-1.387-5.743-1.563-1-.085-2.842-.059-3.832.054-2.684.307-5.384 1.056-8.316 2.309-1.35.577-2.733 1.281-4.65 2.37-2.81 1.594-6.2 2.7-9.52 3.105-1.378.168-3.52.243-4.787.168z" fill="red" stroke-width=".134" transform="matrix(1.61758 0 0 2.4156 -90.215 -230.063)"/><path d="M112.164 116.522c-.226-.099-.41-.213-.41-.253 0-.153 1.451-2.544 2.061-3.396 2.91-4.067 7.045-7.38 11.963-9.585 1.487-.667 4.3-1.591 5.961-1.959 2.324-.514 3.713-.673 6.276-.717 2.541-.043 3.891.051 5.97.419 3.567.63 6.602 1.786 9.999 3.804 2.308 1.372 4.76 2.635 6.698 3.449 1.713.72 4.897 1.762 6.439 2.107 2.837.637 4.165.789 6.838.785 2.217-.003 3.085-.083 4.837-.44 4.918-1.002 10.12-3.993 13.824-7.947a29.58 29.58 0 0 0 1.381-1.648c.439-.565.8-.96.8-.88.001.08-.166.625-.372 1.21-1.417 4.03-4.113 7.908-7.75 11.147l-.874.78-.561.046c-.309.025-.783.066-1.054.09l-.492.045.828-.577c1.45-1.01 2.817-2.365 3.235-3.208l.181-.366-.334-.187a1.654 1.654 0 0 1-.52-.498c-.103-.172-.207-.312-.232-.312-.025 0-.426.193-.89.43-2.345 1.19-5.16 2.054-7.903 2.427-2.434.33-5.629.374-8.152.113-3.415-.354-7.306-1.273-10.63-2.51-2.798-1.042-4.788-2.002-7.425-3.582-3.39-2.032-6.974-3.202-10.978-3.584-1.88-.179-4.58-.12-6.423.14-8.867 1.251-16.716 6.353-21.066 13.692-.376.635-.713 1.152-.75 1.15a3.588 3.588 0 0 1-.475-.185z" fill="red" stroke-width=".269" transform="matrix(1.61758 0 0 2.4156 -90.215 -230.063)"/><path d="M75.175 144.548c-3.235-.473-5.862-1.496-8.655-3.369-6.066-4.069-9.179-10-9.179-17.493 0-7.179 4.473-14.172 11.456-17.914 3.18-1.704 6.463-2.552 9.89-2.556 3.49-.004 5.696.609 8.745 2.432 18.261 10.921 30.332 15.76 42.783 17.153 2.542.284 8.179.32 10.614.067 3.309-.344 8.828-1.389 20.483-3.878 15.93-3.403 24.777-4.486 33.133-4.056 5.553.286 9.208.927 15.866 2.786 6.83 1.907 10.005 2.997 21.337 7.33 13.757 5.26 18.545 6.849 24.94 8.279 14.767 3.302 26.627 2.071 41.892-4.346 1.13-.475 2.096-.837 2.146-.804.124.083-4.49 2.769-7.574 4.408-10.118 5.377-18.306 8.243-27.265 9.541-2.66.386-9.106.462-11.982.142-5.93-.661-12.784-2.343-25.111-6.162-15.14-4.692-20.705-6.098-27.772-7.021-12.044-1.573-19.507-.462-46.196 6.878-16.412 4.513-24.654 6.332-32.827 7.243-2.898.323-12.644.95-18.492 1.19-4.693.193-27.126.312-28.232.15zm8.836-.955c1.928-.343 3.539-.973 5.226-2.042 1.807-1.146 2.853-2.38 3.518-4.154.218-.583.46-1.103.537-1.154.078-.052.612.17 1.189.491 5.838 3.262 14.085 4.844 21.22 4.069 9.66-1.05 18.42-5.853 24.576-13.476 1.201-1.488 1.236-1.71.357-2.263l-.515-.325-1.061.996c-2.807 2.634-6.595 4.432-10.757 5.105-2.31.373-6.313.244-8.653-.281-3.122-.7-5.974-1.909-8.482-3.595-1.98-1.332-2.979-2.252-6.29-5.799-6.01-6.438-9.41-9.562-13.071-12.014-5.697-3.813-10.816-5.06-17.175-4.181-5.267.727-9.283 3.083-12.37 7.256-1.661 2.246-2.485 3.848-3.315 6.448-.573 1.795-.608 2.116-.608 5.569 0 3.232.058 3.837.483 5.138 1.746 5.336 5.192 9.006 11.105 11.825 2 .953 5.056 1.941 7.112 2.299 1.99.346 5.294.388 6.974.088z" fill="red" stroke-width=".537" transform="matrix(1.61758 0 0 2.4156 -90.215 -230.063)"/></g></svg>