<svg xmlns="http://www.w3.org/2000/svg" viewBox="0 0 420 297"><g fill="none" stroke="#000" stroke-width="1.518"><path d="M85.99 103.363c17.66 10.631 37.652 21.692 59.046 17.78 21.345-3.67 43.325-11.635 64.936-4.733 22.689 5.658 43.914 20.031 68.1 17.201 14.032-1.7 26.739-8.436 39.05-14.94" transform="matrix(1.61758 0 0 2.4156 -90.215 -230.063)"/><path d="M317.122 118.671c-19.35 12.388-40.708 27.32-64.939 23.892-23.651-3.516-46.078-17.523-70.651-12.537-22.587 3.97-44.069 13.49-67.244 14.278-11.872.904-23.788.877-35.687.85M85.99 103.363c-14.275-5.69-31.34 7.442-29.208 22.717.926 10.9 10.908 19.57 21.819 19.074" transform="matrix(1.61758 0 0 2.4156 -90.215 -230.063)"/><path d="M111.05 115.921c7.583-15.434 28.554-21.149 43.166-12.327 8.866 5.45 20.187 9.18 30.103 4.125 5.427-2.544 9.9-7.06 12.391-12.51m0 0c-.579 7.51-4.477 13.685-10.179 18.454m-28.064 22.112c7.677 10.485 23.061 12.192 33.806 5.598 7.515-4.22 17.4-6.777 24.496-.212m.001 0c-2.24-4.51-5.828-7.94-10.017-10.655" transform="matrix(1.61758 0 0 2.4156 -90.215 -230.063)"/><path d="M160.462 135.098c7.097 9.441 20.874 10.092 30.627 4.618 5.388-2.164 12.772-9.24 18.306-3.867m-5.619-5.839c2.41 1.396 5.245 2.916 5.619 5.839M111.05 115.92l-.246.46m2.589.873c6.802-13.719 25.439-19.708 38.568-11.384 9.747 5.874 24.84 8.941 35.465 2.902m0 0c-1.132 2.36-5.579 5.174-8.313 5.741" transform="matrix(1.61758 0 0 2.4156 -90.215 -230.063)"/><path d="M128.19 114.318c.165 3.9-6.287 3.572-5.733-.287.339-3.564 5.736-3.312 5.732.287zm51.4 21.467c.167 3.9-6.286 3.572-5.732-.287.339-3.564 5.736-3.31 5.732.287zm26.445-26.374c.167 3.9-6.286 3.572-5.732-.287.339-3.565 5.736-3.312 5.732.287zm21.734 32.694c.166 3.9-6.286 3.573-5.732-.286.338-3.565 5.736-3.312 5.732.287zm-80.131 4.725c.166 3.9-6.286 3.572-5.732-.287.338-3.564 5.736-3.31 5.732.287zm28.726-47.247c.167 3.9-6.286 3.572-5.732-.287.339-3.564 5.736-3.31 5.732.287zM90.21 139.698c1.633-1.51 2.244-3.15 2.575-5.35.284-1.894.008-3.855-.688-5.64-.697-1.784-1.804-3.394-3.142-4.765-2.393-2.45-5.611-4.157-9.025-4.43a11.77 11.77 0 0 0-5.05.683 10.51 10.51 0 0 0-4.198 2.868 10.144 10.144 0 0 0-2.46 5.756 10.436 10.436 0 0 0 1.366 6.114c.99 1.71 2.487 3.139 4.282 3.968 1.794.83 3.882 1.04 5.784.502a7.891 7.891 0 0 0 4.026-2.7 7.891 7.891 0 0 0 1.664-4.554m55.6-7.17c-4.344 6.083-10.65 10.74-17.74 13.105-10.018 3.34-21.508 1.929-30.42-3.737m48.16-9.368c-9.503 10.107-26.571 8.123-35.134-2.147-7.941-8.353-17.222-19.51-30.455-17.43-14.683 1.24-22.006 20.984-10.596 31.098 6.584 5.505 18.316 9.065 25.45 3.197" transform="matrix(1.61758 0 0 2.4156 -90.215 -230.063)"/><path d="M188.696 112.419a44.624 44.624 0 0 1 5.764-.156c3.855.146 7.675.79 11.451 1.58 8.715 1.824 17.26 4.427 25.572 7.617 8.645 3.318 17.106 7.29 26.151 9.274 3.382.742 6.83 1.2 10.29 1.295 6.25.174 12.477-.832 18.57-2.228a145.26 145.26 0 0 0 17.486-5.18M211.134 133.117c6.969 2.193 13.933 4.404 20.89 6.632 6.12 1.96 12.275 3.943 18.647 4.767 5.21.674 10.51.561 15.706-.207a62.99 62.99 0 0 0 22.36-7.824" stroke-width=".506" transform="matrix(1.61758 0 0 2.4156 -90.215 -230.063)"/></g></svg>