<svg xmlns="http://www.w3.org/2000/svg" viewBox="0 0 420 297"><g fill="none" stroke="#000" stroke-width="1.518"><path stroke-width=".506" d="M188.696 112.419a44.624 44.624 0 0 1 5.764-.156c3.855.146 7.675.79 11.451 1.58 8.715 1.824 17.26 4.427 25.572 7.617 8.645 3.318 17.106 7.29 26.151 9.274 3.382.742 6.83 1.2 10.29 1.295 6.25.174 12.477-.832 18.57-2.228a145.26 145.26 0 0 0 17.486-5.18m-92.846 8.496a4328.848 4328.848 0 0 1 20.89 6.632c6.12 1.96 12.275 3.943 18.647 4.767 5.21.674 10.51.561 15.706-.207a62.99 62.99 0 0 0 22.36-7.824" opacity=".236" transform="matrix(1.61758 0 0 2.4156 -90.215 -230.063)"/><path stroke-width=".506" d="M81.157 144.993c-2.867.68-5.899.655-8.754-.074-4.769-1.216-8.925-4.37-11.817-8.353-2.192-3.018-3.716-6.554-4.158-10.258-.54-4.525.583-9.22 3.064-13.042 2.194-3.381 5.375-6.04 8.863-8.06 3.27-1.895 6.944-3.285 10.723-3.224 3.207.052 6.315 1.144 9.191 2.564 4.297 2.122 8.187 4.98 12.365 7.327a58.825 58.825 0 0 0 10.17 4.508m0 0a30.305 30.305 0 0 1 3.507-5.533 29.753 29.753 0 0 1 6.894-6.302 30.288 30.288 0 0 1 8.644-3.883c3.657-1 7.486-1.33 11.27-1.1 3.15.193 6.304.78 9.191 2.052 2.604 1.148 4.936 2.827 7.441 4.177 2.322 1.251 4.792 2.219 7.331 2.93a36.2 36.2 0 0 0 7.878 1.32c1.901.099 3.815.034 5.69-.293 4.08-.712 7.896-2.668 11.052-5.35a27.194 27.194 0 0 0 7.008-9.19m0 .001a21.384 21.384 0 0 1-.88 6.625 21.5 21.5 0 0 1-7.134 10.584m0 0a35.925 35.925 0 0 1 5.93-.326c4.063.114 8.075.916 12.036 1.832a198.055 198.055 0 0 1 15.975 4.396 194.819 194.819 0 0 1 10.942 3.884c4.767 1.852 9.463 3.887 14.28 5.605 3.172 1.132 6.396 2.125 9.683 2.858 3.843.856 7.772 1.354 11.708 1.355 4.113.001 8.21-.538 12.255-1.282a127.014 127.014 0 0 0 8.207-1.795 132.66 132.66 0 0 0 27.41-10.275m0 0l-28.614 17.346m0 0l-.273.842m0 .001a65.006 65.006 0 0 1-8.152 3.883 60.179 60.179 0 0 1-8.425 2.638 60.27 60.27 0 0 1-8.863 1.355c-3.806.302-7.64.269-11.435-.146-5.187-.568-10.274-1.844-15.264-3.37-3.728-1.142-7.41-2.424-11.106-3.665a523.526 523.526 0 0 0-13.856-4.438m0 0l5.636 8.044m-.001 0a14.243 14.243 0 0 0-4.964-2.946c-1.754-.602-3.617-.856-5.471-.843-3.777.028-7.482 1.153-10.888 2.785-2.864 1.372-5.57 3.113-8.59 4.103-1.89.62-3.87.934-5.853 1.099-3.502.292-7.07.12-10.45-.843-3.404-.97-6.583-2.75-9.136-5.202a20.843 20.843 0 0 1-2.95-3.539m0 0a257.46 257.46 0 0 1-12.041 3.539c-5.525 1.479-11.103 2.774-16.741 3.737a145.024 145.024 0 0 1-13.35 1.649c-5.279.404-10.575.517-15.865.732-6.164.25-12.344.639-18.493.147a64.626 64.626 0 0 1-1.586-.147" transform="matrix(1.61758 0 0 2.4156 -90.215 -230.063)"/><path fill="#0ff" stroke-width=".708" d="M46.002 120.98c-1.753-.139-3.664-.447-4.248-.684-.584-.237-3.505-.36-6.49-.272-4.227.124-6.173-.17-8.794-1.33C10.497 111.63-.857 85.065 2.09 61.656c.915-7.27 4.097-17.42 7.097-22.64 5.127-8.92 15.01-18.194 21.882-20.536 9.486-3.232 16.679.083 32.986 15.202 8.134 7.54 15.232 13.028 21.05 16.273l4.059 2.264.813-2.007c3.141-7.76 8.919-18.272 12.283-22.35 12.778-15.492 31.149-20.735 46.754-13.346 2.363 1.12 7.39 4.735 11.327 8.15 5.071 4.395 8.889 7.01 13.452 9.212 7.77 3.75 11.373 4.65 18.544 4.628 12.767-.04 23.346-8.394 31.789-25.104l3.212-6.36-.47 3.882c-1.272 10.472-5.021 21.425-9.548 27.886-1.55 2.213-2.818 4.328-2.818 4.7 0 .383 2.934.676 6.756.676 8.016 0 14.785 1.294 24.607 4.702 15.985 5.548 29.759 12.242 50.056 24.328 29.161 17.364 42.934 21.08 62.979 16.996 12.86-2.621 34.597-11.265 44.816-17.823 1.877-1.204 3.57-2.03 3.765-1.837.193.194-6.83 6.846-15.608 14.782-8.777 7.936-16.135 14.979-16.35 15.65-.631 1.967-10.697 8.898-18.378 12.655-10.65 5.208-19.053 7.183-30.427 7.15-14.79-.043-20.397-1.93-54.11-18.212-11.515-5.562-21.21-9.854-21.543-9.538-.334.317.86 3.674 2.654 7.461 1.795 3.788 3.262 6.994 3.262 7.124 0 .131-1.158-.548-2.575-1.51-5.779-3.92-13.98-4.12-21.665-.523-2.472 1.156-7.825 4.588-11.897 7.626-8.824 6.583-12.026 8.115-18.274 8.746-6.894.696-13.213-.248-18.252-2.726-5.26-2.587-12.394-9.85-15.48-15.759-1.169-2.236-2.488-4.066-2.931-4.067-.444 0-4.426 1.611-8.85 3.583-22.485 10.02-41.918 15.681-60.434 17.604-8.153.846-42.79 2.943-45.57 2.759a500.248 500.248 0 0 1-5.051-.377z"/></g></svg>